<?xml version="1.0" encoding="iso-8859-1"?>
<!-- Uploaded to: SVG Repo, www.svgrepo.com, Generator: SVG Repo Mixer Tools -->
<svg height="800px" width="800px" version="1.1" id="Layer_1" xmlns="http://www.w3.org/2000/svg" xmlns:xlink="http://www.w3.org/1999/xlink" 
	 viewBox="0 0 504.32 504.32" xml:space="preserve">
<g transform="translate(5 1)">
	<polygon style="fill:#FFD0A1;" points="187.427,345.453 187.427,464.92 119.16,464.92 119.16,311.32 221.56,311.32 272.76,311.32 
		375.16,311.32 375.16,464.92 306.893,464.92 306.893,345.453 247.16,345.453 	"/>
	<path style="fill:#F2EDDA;" d="M375.16,106.52v68.267h-102.4V106.52h85.333H375.16z M358.093,38.253v68.267H272.76V38.253h51.2
		H358.093z M409.293,243.053v68.267H375.16h-102.4v-68.267h119.467H409.293z M392.227,174.786v68.267H272.76v-68.267h102.4H392.227z
		"/>
	<polygon style="fill:#AE938D;" points="306.893,413.72 306.893,464.92 187.427,464.92 187.427,345.453 306.893,345.453 	"/>
	<path style="fill:#FFD0A1;" d="M221.56,311.32h51.2V38.253h-51.2V311.32z M272.76,38.253h-51.2c0-25.6,25.6-34.133,25.6-34.133
		S272.76,12.653,272.76,38.253z"/>
	<g>
		<path style="fill:#F2EDDA;" d="M221.56,243.053v68.267h-102.4H85.027v-68.267h17.067H221.56z M221.56,174.786v68.267H102.093
			v-68.267h17.067H221.56z M221.56,106.52v68.267h-102.4V106.52h17.067H221.56z M221.56,38.253v68.267h-85.333V38.253h34.133H221.56
			z"/>
		<path style="fill:#F2EDDA;" d="M85.027,311.32h34.133v153.6h-51.2v-153.6H85.027z M426.36,311.32v153.6h-51.2v-153.6h34.133
			H426.36z M460.493,464.92v34.133H33.827V464.92H67.96h51.2h68.267h59.733h59.733h68.267h51.2H460.493z"/>
	</g>
</g>
<path style="fill:#51565F;" d="M499.627,504.32H4.693c-2.56,0-4.267-1.707-4.267-4.267c0-2.56,1.707-4.267,4.267-4.267h494.933
	c2.56,0,4.267,1.707,4.267,4.267C503.893,502.613,502.187,504.32,499.627,504.32z M465.493,470.186H38.827
	c-2.56,0-4.267-1.707-4.267-4.267c0-2.56,1.707-4.267,4.267-4.267H188.16V350.72h-12.8c-2.56,0-4.267-1.707-4.267-4.267
	c0-2.56,1.707-4.267,4.267-4.267h153.6c2.56,0,4.267,1.707,4.267,4.267c0,2.56-1.707,4.267-4.267,4.267h-12.8v110.933h149.333
	c2.56,0,4.267,1.707,4.267,4.267C469.76,468.48,468.053,470.186,465.493,470.186z M256.427,461.653h51.2V350.72h-51.2v59.733h4.267
	c2.56,0,4.267,1.707,4.267,4.267s-1.707,4.267-4.267,4.267h-4.267V461.653z M196.693,461.653h51.2v-42.667h-4.267
	c-2.56,0-4.267-1.707-4.267-4.267s1.707-4.267,4.267-4.267h4.267V350.72h-51.2V461.653z M431.36,436.053
	c-2.56,0-4.267-1.707-4.267-4.267v-115.2h-42.667v115.2c0,2.56-1.707,4.267-4.267,4.267s-4.267-1.707-4.267-4.267v-115.2H128.427
	v115.2c0,2.56-1.707,4.267-4.267,4.267c-2.56,0-4.267-1.707-4.267-4.267v-115.2H77.227v115.2c0,2.56-1.707,4.267-4.267,4.267
	s-4.267-1.707-4.267-4.267v-115.2h-12.8c-2.56,0-4.267-1.707-4.267-4.267c0-2.56,1.707-4.267,4.267-4.267h166.4V248.32h-128v29.867
	c0,2.56-1.707,4.267-4.267,4.267c-2.56,0-4.267-1.707-4.267-4.267v-34.133c0-2.56,1.707-4.267,4.267-4.267h132.267v-59.733H111.36
	v29.867c0,2.56-1.707,4.267-4.267,4.267c-2.56,0-4.267-1.707-4.267-4.267v-34.133c0-2.56,1.707-4.267,4.267-4.267h115.2v-59.733
	h-93.867v29.867c0,2.56-1.707,4.267-4.267,4.267c-2.56,0-4.267-1.707-4.267-4.267V107.52c0-2.56,1.707-4.267,4.267-4.267h98.133
	V43.52h-76.8v29.867c0,2.56-1.707,4.267-4.267,4.267c-2.56,0-4.267-1.707-4.267-4.267V40.96l-7.68-7.68
	c-5.12-6.827-6.827-16.213-3.413-23.893C128.427,3.413,134.4,0,140.373,0c2.56,0,4.267,1.707,4.267,4.267s-1.707,4.267-4.267,4.267
	c-3.413,0-5.973,1.707-6.827,4.267c-1.707,4.267-0.853,10.24,1.707,14.507l6.827,6.827h28.16V22.186c0-2.56,1.707-4.267,4.267-4.267
	s4.267,1.707,4.267,4.267v12.8h42.667C224,15.36,240.214,4.266,249.6,0.853c0.853,0,1.707,0,2.56,0
	c9.387,3.413,26.453,13.653,28.16,34.133h42.667v-12.8c0-2.56,1.707-4.267,4.267-4.267s4.267,1.707,4.267,4.267v12.8h28.16
	l7.68-7.68c3.413-3.413,5.12-9.387,3.413-13.653c-0.853-3.413-4.267-4.267-9.387-4.267c-2.56,0-4.267-1.707-4.267-4.267
	s1.707-4.267,4.267-4.267c8.533,0,14.507,3.413,17.067,10.24c2.56,6.827,0.853,17.067-5.973,23.04l-7.68,7.68V74.24
	c0,2.56-1.707,4.267-4.267,4.267s-4.267-1.707-4.267-4.267V44.373h-76.8v59.733H377.6c2.56,0,4.267,1.707,4.267,4.267v34.133
	c0,2.56-1.707,4.267-4.267,4.267s-4.267-1.707-4.267-4.267V112.64h-93.867v59.733h115.2c2.56,0,4.267,1.707,4.267,4.267v34.133
	c0,2.56-1.707,4.267-4.267,4.267c-2.56,0-4.267-1.707-4.267-4.267v-29.867H279.467v59.733h132.267c2.56,0,4.267,1.707,4.267,4.267
	v34.133c0,2.56-1.707,4.267-4.267,4.267s-4.267-1.707-4.267-4.267v-29.867h-128v59.733h166.4c2.56,0,4.267,1.707,4.267,4.267
	c0,2.56-1.707,4.267-4.267,4.267h-12.8v114.347C435.627,434.346,433.92,436.053,431.36,436.053z M230.827,308.053h42.667V248.32
	h-42.667V308.053z M230.827,239.786h42.667v-59.733h-42.667V239.786z M230.827,171.52h42.667v-59.733h-42.667V171.52z
	 M230.827,103.253h42.667V43.52h-42.667V103.253z M230.827,34.986h41.813c-2.56-16.213-16.213-23.04-21.333-25.6
	C247.893,11.946,233.387,18.773,230.827,34.986z"/>
</svg>